<bug id='96' author='loretoparisi' open_date='2019-11-14T17:33:40Z' closed_time='2019-11-14T22:41:33Z'>
	<summary>[Bug] Different audio duration after wave to mp3</summary>
	<description>
After converting the input mp3 file to wave the duration changes:
&lt;denchmark-code&gt;(.env) ip-192-168-23-184:spleeter loretoparisi$ ffprobe -i output/test/vocals.mp3 
ffprobe version 4.0 Copyright (c) 2007-2018 the FFmpeg developers
  built with Apple LLVM version 9.1.0 (clang-902.0.39.1)
  configuration: --prefix=/usr/local/Cellar/ffmpeg/4.0 --enable-shared --enable-pthreads --enable-version3 --enable-hardcoded-tables --enable-avresample --cc=clang --host-cflags= --host-ldflags= --enable-gpl --enable-libmp3lame --enable-libx264 --enable-libxvid --enable-opencl --enable-videotoolbox --disable-lzma
  libavutil      56. 14.100 / 56. 14.100
  libavcodec     58. 18.100 / 58. 18.100
  libavformat    58. 12.100 / 58. 12.100
  libavdevice    58.  3.100 / 58.  3.100
  libavfilter     7. 16.100 /  7. 16.100
  libavresample   4.  0.  0 /  4.  0.  0
  libswscale      5.  1.100 /  5.  1.100
  libswresample   3.  1.100 /  3.  1.100
  libpostproc    55.  1.100 / 55.  1.100
Input #0, mp3, from 'output/test/vocals.mp3':
  Metadata:
    encoder         : Lavf58.12.100
  **Duration: 00:03:27.78, start: 0.025057, bitrate: 128 kb/s**
    Stream #0:0: Audio: mp3, 44100 Hz, stereo, fltp, 128 kb/s
    Metadata:
      encoder         : Lavc58.18
&lt;/denchmark-code&gt;

while the wave file was
&lt;denchmark-code&gt;(.env) ip-192-168-23-184:spleeter loretoparisi$ ffprobe -i output/test/vocals.wav 
ffprobe version 4.0 Copyright (c) 2007-2018 the FFmpeg developers
  built with Apple LLVM version 9.1.0 (clang-902.0.39.1)
  configuration: --prefix=/usr/local/Cellar/ffmpeg/4.0 --enable-shared --enable-pthreads --enable-version3 --enable-hardcoded-tables --enable-avresample --cc=clang --host-cflags= --host-ldflags= --enable-gpl --enable-libmp3lame --enable-libx264 --enable-libxvid --enable-opencl --enable-videotoolbox --disable-lzma
  libavutil      56. 14.100 / 56. 14.100
  libavcodec     58. 18.100 / 58. 18.100
  libavformat    58. 12.100 / 58. 12.100
  libavdevice    58.  3.100 / 58.  3.100
  libavfilter     7. 16.100 /  7. 16.100
  libavresample   4.  0.  0 /  4.  0.  0
  libswscale      5.  1.100 /  5.  1.100
  libswresample   3.  1.100 /  3.  1.100
  libpostproc    55.  1.100 / 55.  1.100
Input #0, wav, from 'output/test/vocals.wav':
  Metadata:
    encoder         : Lavf58.12.100
  Duration: 00:03:27.75, bitrate: 1411 kb/s
    Stream #0:0: Audio: pcm_s16le ([1][0][0][0] / 0x0001), 44100 Hz, 2 channels, s16, 1411 kb/s
&lt;/denchmark-code&gt;

	</description>
	<comments>
		<comment id='1' author='loretoparisi' date='2019-11-14T17:36:57Z'>
		Spleeter export separated tracks using wav audio format but you can directly export into mp3 codec using -c mp3 parameter.
		</comment>
		<comment id='2' author='loretoparisi' date='2019-11-14T17:41:01Z'>
		&lt;denchmark-link:https://github.com/Faylixe&gt;@Faylixe&lt;/denchmark-link&gt;
 yes I know, but I'm using the wave signal directly
for instrument, waveform in sample.items():
vocals = sample['vocals']
...
the time series here in vocals, when loaded like into librosa has a different duration than the input file:
vocals = vocals.reshape(2,-2)
vocals = librosa.resample(vocals, sample_rate, 22050)
sample_rate = 22050
vocals = librosa.core.to_mono(vocals)
audio_duration = np.round(librosa.get_duration(y=vocals, sr=sample_rate), 2)
the audio_duration is wrong.
		</comment>
		<comment id='3' author='loretoparisi' date='2019-11-14T22:41:33Z'>
		Small variations of duration between WAV and MP3 versions of a signal are not uncommon and are probably just the result of some padding of zeroes to fit the length to a multiple of the MDCT size.
Anyway this is not related to spleeter.
		</comment>
	</comments>
</bug>